<?xml version="1.0" encoding="utf-8"?>
<!-- Generated by IcoMoon.io -->
<!DOCTYPE svg PUBLIC "-//W3C//DTD SVG 1.1//EN" "http://www.w3.org/Graphics/SVG/1.1/DTD/svg11.dtd">
<svg version="1.1" xmlns="http://www.w3.org/2000/svg" xmlns:xlink="http://www.w3.org/1999/xlink" width="32" height="32" viewBox="0 0 32 32">
<path fill="rgb(216, 216, 216)" d="M0 0h32v32h-32v-32z"></path>
<path fill="rgb(255, 255, 255)" d="M12.392 13.161c0.779 1.61 2.123 2.975 3.65 2.975 1.537 0 2.881-1.375 3.66-2.996 0.35-0.141 0.737-0.502 1.035-1.014 0.46-0.79 0.502-1.621 0.094-1.856-0.115-0.063-0.267-0.073-0.418-0.031-0.042-2.379-1.971-4.298-4.361-4.298-2.4 0-4.34 1.929-4.361 4.319-0.183-0.063-0.361-0.073-0.502 0.010-0.408 0.235-0.361 1.067 0.094 1.856 0.309 0.559 0.748 0.931 1.108 1.035z"></path>
<path fill="rgb(255, 255, 255)" d="M23.362 17.354v0c-0.643-0.868-1.469-1.59-2.421-2.102-0.193-0.141-0.439-0.225-0.695-0.225-0.34 0-0.648 0.141-0.863 0.371v-0.010c-0.737 0.79-1.846 1.663-3.326 1.663-1.474 0-2.562-0.863-3.294-1.652-0.225-0.225-0.523-0.371-0.863-0.371-0.214 0-0.418 0.063-0.596 0.162h-0.010c-1.046 0.533-1.94 1.312-2.62 2.259-0.11 0.199-0.329 0.716-0.131 1.448 0.769 1.966 2.295 3.556 4.22 4.413 0.993 0.444 2.097 0.69 3.252 0.69 1.145 0 2.238-0.241 3.226-0.68 2.065-0.915 3.676-2.672 4.387-4.842 0.052-0.706-0.267-1.124-0.267-1.124z"></path>
</svg>
