<?xml version="1.0" encoding="utf-8"?>
<!-- Generated by IcoMoon.io -->
<!DOCTYPE svg PUBLIC "-//W3C//DTD SVG 1.1//EN" "http://www.w3.org/Graphics/SVG/1.1/DTD/svg11.dtd">
<svg version="1.1" xmlns="http://www.w3.org/2000/svg" xmlns:xlink="http://www.w3.org/1999/xlink" width="32" height="32" viewBox="0 0 32 32">
<path fill="none" stroke="#afafb3" stroke-width="0.5714" stroke-miterlimit="10" stroke-linecap="butt" stroke-linejoin="miter" d="M30.857 16c0 8.205-6.652 14.857-14.857 14.857s-14.857-6.652-14.857-14.857c0-8.205 6.652-14.857 14.857-14.857s14.857 6.652 14.857 14.857z"></path>
<path fill="#858f9a" d="M18.171 7.829l-1.2 1.2c1.829 1.771 2.914 4.229 2.914 6.971 0 2.629-1.086 5.029-2.8 6.8l1.2 1.2c2-2.057 3.257-4.857 3.257-8 0.057-3.2-1.257-6.114-3.371-8.171z"></path>
<path fill="#858f9a" d="M12.571 13.543l-2.4 2.457 2.457 2.4c0.629-0.629 0.971-1.486 0.971-2.4 0-0.971-0.4-1.829-1.029-2.457z"></path>
<path fill="#858f9a" d="M15.371 10.686l-1.2 1.2c1.086 1.029 1.714 2.514 1.714 4.114 0 1.543-0.629 2.971-1.657 4l1.2 1.2c1.314-1.314 2.114-3.2 2.114-5.2 0.057-2.114-0.8-3.943-2.171-5.314z"></path>
</svg>
