<?xml version="1.0" encoding="utf-8"?>
<!-- Generated by IcoMoon.io -->
<!DOCTYPE svg PUBLIC "-//W3C//DTD SVG 1.1//EN" "http://www.w3.org/Graphics/SVG/1.1/DTD/svg11.dtd">
<svg version="1.1" xmlns="http://www.w3.org/2000/svg" xmlns:xlink="http://www.w3.org/1999/xlink" width="32" height="32" viewBox="0 0 32 32">
<path fill="#efefef" stroke="#afafb3" stroke-width="0.5714" stroke-miterlimit="10" stroke-linecap="butt" stroke-linejoin="miter" d="M30.857 16c0 8.205-6.652 14.857-14.857 14.857s-14.857-6.652-14.857-14.857c0-8.205 6.652-14.857 14.857-14.857s14.857 6.652 14.857 14.857z"></path>
<path fill="#858f9a" d="M22.857 14.857h-5.714v-5.714c0-0.629-0.514-1.143-1.143-1.143s-1.143 0.514-1.143 1.143v5.714h-5.714c-0.629 0-1.143 0.514-1.143 1.143s0.514 1.143 1.143 1.143h5.714v5.714c0 0.629 0.514 1.143 1.143 1.143s1.143-0.514 1.143-1.143v-5.714h5.714c0.629 0 1.143-0.514 1.143-1.143s-0.514-1.143-1.143-1.143z"></path>
</svg>
