<?xml version="1.0" encoding="utf-8"?>
<!-- Generated by IcoMoon.io -->
<!DOCTYPE svg PUBLIC "-//W3C//DTD SVG 1.1//EN" "http://www.w3.org/Graphics/SVG/1.1/DTD/svg11.dtd">
<svg version="1.1" xmlns="http://www.w3.org/2000/svg" xmlns:xlink="http://www.w3.org/1999/xlink" width="32" height="32" viewBox="0 0 32 32">
<path fill="#efefef" stroke="#afafb3" stroke-width="0.5714" stroke-miterlimit="10" stroke-linecap="butt" stroke-linejoin="miter" d="M30.857 16c0 8.205-6.652 14.857-14.857 14.857s-14.857-6.652-14.857-14.857c0-8.205 6.652-14.857 14.857-14.857s14.857 6.652 14.857 14.857z"></path>
<path fill="#858f9a" d="M13.029 12.171c0 1.262-1.023 2.286-2.286 2.286s-2.286-1.023-2.286-2.286c0-1.262 1.023-2.286 2.286-2.286s2.286 1.023 2.286 2.286z"></path>
<path fill="#858f9a" d="M23.543 12.171c0 1.262-1.023 2.286-2.286 2.286s-2.286-1.023-2.286-2.286c0-1.262 1.023-2.286 2.286-2.286s2.286 1.023 2.286 2.286z"></path>
<path fill="#858f9a" d="M21.943 17.029c-0.457 0-0.857 0.4-0.857 0.857v0c-0.171 2.686-2.4 4.8-5.143 4.8s-4.914-2.114-5.143-4.8v0c0-0.457-0.4-0.857-0.857-0.857s-0.857 0.4-0.857 0.857c0.171 3.6 3.2 6.514 6.857 6.514s6.629-2.857 6.857-6.514c0-0.457-0.343-0.857-0.857-0.857z"></path>
</svg>
