<?xml version="1.0" encoding="UTF-8" standalone="no"?>
<svg width="31px" height="30px" viewBox="0 0 31 30" version="1.1" xmlns="http://www.w3.org/2000/svg" xmlns:xlink="http://www.w3.org/1999/xlink" xmlns:sketch="http://www.bohemiancoding.com/sketch/ns">
    <!-- Generator: Sketch 3.3.3 (12072) - http://www.bohemiancoding.com/sketch -->
    <title>Imported Layers Copy 3</title>
    <desc>Created with Sketch.</desc>
    <defs></defs>
    <g id="Page-1" stroke="none" stroke-width="1" fill="none" fill-rule="evenodd" sketch:type="MSPage">
        <path d="M23.8979886,22.2593001 C26.3983334,19.4113691 27.6779886,15.5248174 27.079023,11.4820588 C25.999023,4.18274842 19.2055748,-0.858286058 11.9062644,0.221713942 C4.60695408,1.30274842 -0.435114887,8.0961967 0.645919596,15.395507 C1.72695408,22.6948174 8.52040235,27.7358519 15.8197127,26.6558519 C18.3438506,26.2813691 20.5979886,25.2251622 22.4228161,23.6993001 L29.2566093,29.4127484 C29.4748851,29.587576 29.8069541,29.5606795 29.9983334,29.3517139 L30.6893679,28.595507 C30.8797127,28.3865415 30.8569541,28.0751622 30.6386782,27.9003346 L23.8979886,22.2593001 L23.8979886,22.2593001 Z M2.67867822,15.0944726 C1.76522994,8.91861049 6.03040235,3.1699898 12.2072989,2.25550705 C18.383161,1.34102429 24.1317817,5.60723118 25.0452299,11.7830933 C25.9607472,17.9599898 21.6945403,23.707576 15.5186782,24.6220588 C9.34178166,25.5365415 3.59419546,21.2713691 2.67867822,15.0944726 L2.67867822,15.0944726 Z" id="Imported-Layers-Copy-3" fill="#B2B2B2" sketch:type="MSShapeGroup"></path>
    </g>
</svg>