<?xml version="1.0" encoding="utf-8"?>
<!-- Generated by IcoMoon.io -->
<!DOCTYPE svg PUBLIC "-//W3C//DTD SVG 1.1//EN" "http://www.w3.org/Graphics/SVG/1.1/DTD/svg11.dtd">
<svg version="1.1" xmlns="http://www.w3.org/2000/svg" xmlns:xlink="http://www.w3.org/1999/xlink" width="32" height="32" viewBox="0 0 32 32">
<path fill="#00bf8f" d="M16 0c-8.85 0-16 7.15-16 16s7.15 16 16 16 16-7.15 16-16c0-8.85-7.15-16-16-16zM16 24.8c-0.4 0-4.9-2.3-4.9-3.95s3.25-9.75 3.25-9.75-1.35-2.35-1.65-2.75-0.25-1.15 0.65-1.15h5.3c0.9 0 0.95 0.75 0.65 1.15s-1.65 2.75-1.65 2.75 3.25 7.9 3.25 9.75-4.5 3.95-4.9 3.95z"></path>
</svg>
