<?xml version="1.0" encoding="utf-8"?>
<!-- Generated by IcoMoon.io -->
<!DOCTYPE svg PUBLIC "-//W3C//DTD SVG 1.1//EN" "http://www.w3.org/Graphics/SVG/1.1/DTD/svg11.dtd">
<svg version="1.1" xmlns="http://www.w3.org/2000/svg" xmlns:xlink="http://www.w3.org/1999/xlink" width="32" height="32" viewBox="0 0 32 32">
<path fill="rgb(0, 191, 143)" d="M31.1 26.9l-5.3-5.3c1.4-2.2 2.2-4.8 2.2-7.5 0-7.8-6.3-14-14-14-7.7-0.1-14 6.2-14 13.9s6.3 14 14 14c2.8 0 5.4-0.8 7.5-2.2l5.3 5.3c1.2 1.2 3.1 1.2 4.3 0s1.2-3 0-4.2zM14 24.5c-5.8 0-10.5-4.7-10.5-10.5s4.7-10.5 10.5-10.5 10.5 4.7 10.5 10.5-4.7 10.5-10.5 10.5z"></path>
</svg>
