<?xml version="1.0" encoding="utf-8"?>
<!-- Generated by IcoMoon.io -->
<!DOCTYPE svg PUBLIC "-//W3C//DTD SVG 1.1//EN" "http://www.w3.org/Graphics/SVG/1.1/DTD/svg11.dtd">
<svg version="1.1" xmlns="http://www.w3.org/2000/svg" xmlns:xlink="http://www.w3.org/1999/xlink" width="32" height="32" viewBox="0 0 32 32">
<path fill="#00bf8f" d="M17.6 0c-0.3 0-2.8 0-3 0-7.050 0-12.9 5.2-13.85 12.050-0.050 0.2-0.1 0.45-0.1 0.7-1.35 9.4 7.3 16.95 14 19.3 0.1-2.25-1.050-4.050 1.25-4.050 0.050 0 1.45 0 1.75 0 7.75 0 13.75-6.25 14-14 0.2-7.6-5.9-13.75-14.050-14zM8.1 15.5c-1.1 0-2-0.9-2-2s0.9-2 2-2 2 0.9 2 2c0 1.1-0.85 2-2 2zM16.1 15.5c-1.1 0-2-0.9-2-2s0.9-2 2-2 2 0.9 2 2c0 1.1-0.85 2-2 2zM24.1 15.5c-1.1 0-2-0.9-2-2s0.9-2 2-2 2 0.9 2 2c0 1.1-0.85 2-2 2z"></path>
</svg>
