<?xml version="1.0" encoding="utf-8"?>
<!-- Generated by IcoMoon.io -->
<!DOCTYPE svg PUBLIC "-//W3C//DTD SVG 1.1//EN" "http://www.w3.org/Graphics/SVG/1.1/DTD/svg11.dtd">
<svg version="1.1" xmlns="http://www.w3.org/2000/svg" xmlns:xlink="http://www.w3.org/1999/xlink" width="32" height="32" viewBox="0 0 32 32">
<path fill="#00bf8f" d="M31.050 14.4v0l-12.1-13.2c-0.8-0.75-1.8-1.2-2.85-1.2-1.1 0-2.1 0.45-2.85 1.2l-12.15 13.2c-1.25 1.3-1.1 2.45-0.9 2.9 0.15 0.35 0.65 1.25 2.1 1.25h1.8v11.45c0 1.1 0.9 2 2 2h4.85c1.1 0 2-0.9 2-2v-4.45c0-1.75 1.45-2.2 3.2-2.2s3.2 0.45 3.2 2.2v4.45c0 1.1 0.9 2 2 2h4.6c0.050 0 0.1 0 0.1 0 1.1 0 2-0.9 2-2v-11.45h1.8c1.45 0 1.95-0.9 2.1-1.25 0.2-0.5 0.4-1.6-0.9-2.9z"></path>
</svg>
