<?xml version="1.0" encoding="utf-8"?>
<!-- Generated by IcoMoon.io -->
<!DOCTYPE svg PUBLIC "-//W3C//DTD SVG 1.1//EN" "http://www.w3.org/Graphics/SVG/1.1/DTD/svg11.dtd">
<svg version="1.1" xmlns="http://www.w3.org/2000/svg" xmlns:xlink="http://www.w3.org/1999/xlink" width="32" height="32" viewBox="0 0 32 32">
<path fill="#00bf8f" d="M9.65 13.4c1.35 2.75 3.65 5.1 6.25 5.1 2.65 0 4.95-2.35 6.3-5.15 0.6-0.25 1.25-0.85 1.75-1.75 0.8-1.35 0.85-2.8 0.15-3.2-0.2-0.1-0.45-0.1-0.7-0.050-0.050-4.050-3.4-7.35-7.5-7.35s-7.45 3.3-7.5 7.4c-0.3-0.1-0.6-0.1-0.85 0-0.7 0.4-0.6 1.85 0.15 3.2 0.6 0.95 1.35 1.6 1.95 1.8z"></path>
<path fill="#00bf8f" d="M24.3 17c-0.35-0.25-0.75-0.4-1.2-0.4-0.6 0-1.1 0.25-1.5 0.65v0 0c-1.25 1.35-3.15 2.85-5.7 2.85-2.5 0-4.4-1.5-5.65-2.85v0c-0.4-0.4-0.9-0.65-1.5-0.65-0.35 0-0.7 0.1-1 0.3v0 0c-4.050 2.050-6.85 6.25-6.85 11.1 0 0.65 0.4 1.15 0.95 1.4 0 0 0 0 0.050 0.050 2.55 0.95 7.85 1.6 14 1.6s11.45-0.65 14-1.6c0 0 0 0 0 0 0.6-0.2 1-0.75 1-1.4 0-4.8-2.65-8.95-6.6-11.050z"></path>
</svg>
